<svg width="358.21151254344943" height="353.75" viewBox="0 0 382.8939312522737 378.125" class="css-1j8o68f">
  <defs id="SvgjsDefs2204"></defs>
  <g id="SvgjsG2205" featurekey="rootContainer" transform="matrix(3.547139395286651,0,0,3.547139395286651,-0.19706935327516453,0)" fill="#1f2937"><g xmlns="http://www.w3.org/2000/svg">
  <g id="SvgjsG2207" featurekey="nameFeature-0" transform="matrix(4.6720279107201925,0,0,4.6720279107201925,102.73900255896714,102.4010243444007)" fill="#ffffff">
    <path d="M2.04 31.8 l-0.04 0 c0 1 -0.04 2.04 0 3.08 c0.04 1.28 0.12 2.56 0.2 3.84 c0 0.44 0.12 0.56 0.52 0.64 c0.84 0.2 1.64 0.24 2.48 0.24 c2.16 -0.08 4.32 0.08 6.48 0 c0.88 -0.04 1.28 0.04 2.16 -0.12 c0.8 -0.16 1.08 -0.6 1.08 -1.8 c-0.08 -0.76 -0.04 -1.08 -0.04 -2 c0 -1.32 -0.92 -1.76 -1.72 -1.72 c-0.56 0.04 -3.24 -0.04 -4.32 -0.04 c-1.8 0.04 -1.52 0.28 -1.52 -1.6 c0 -1.52 0.04 -3.48 0.04 -5.04 c0 -0.84 0.08 -1.12 0.88 -1.12 l5 0 c0.8 0.12 1.36 -0.44 1.36 -1.28 s0.08 -0.88 0.08 -1.72 l-0.12 -1.2 c-0.08 -0.68 -0.32 -0.92 -1 -0.92 c-0.44 0 -0.88 0.04 -1.32 0.08 c-1.72 0.12 -2.52 -0.12 -4.2 0 c-0.56 0 -0.64 -0.08 -0.68 -0.6 c-0.16 -1.56 0 -3.28 0.16 -4.84 c0.04 -0.64 0.2 -0.76 0.8 -0.8 l5.64 -0.04 c0.76 -0.08 1 -0.04 0.96 -0.8 c-0.08 -1.16 0.04 -2.36 -0.08 -3.52 c-0.08 -0.64 -0.28 -0.76 -1 -0.76 c-1.2 0.04 -1.48 0.04 -2.68 0.12 c-1.2 0.04 -6 0.04 -7.16 0.04 c-1.68 0 -1.8 -0.12 -1.84 1.92 c-0.08 1.6 -0.04 3.24 -0.04 4.88 c0 2.8 -0.16 12.84 -0.08 15.08 z M24.622000000000003 37 c0 -1.04 0 -7.6 0.04 -8.12 c0.04 -0.12 0.12 -0.36 0.28 -0.36 s0.24 0.08 0.28 0.2 c1.6 3.12 3 6.24 4.44 9.28 c0.2 0.44 0.64 1.72 0.76 1.84 c0.16 0.24 0.44 0.16 0.68 0.16 l4.4 0.04 c0.52 0 0.64 -0.32 0.52 -0.76 c-0.32 -1.2 -2.6 -5.44 -3.12 -6.48 c-0.36 -0.8 -2.76 -5.44 -2.84 -5.8 c-0.08 -0.16 0.52 -0.44 0.6 -0.56 c1.92 -1.72 3.64 -3.48 4 -6.16 c0.4 -2.64 -0.2 -5.52 -1.92 -7.64 c-1.32 -1.56 -3.04 -2.48 -5.08 -2.6 c-1.24 -0.08 -2.44 0.04 -3.68 0 c-1.08 -0.04 -1.84 -0.04 -3.2 -0.04 c-0.64 0 -1.04 0.36 -1.08 1.04 l0 0.48 c-0.08 3.08 0 6.16 0.04 9.2 c0 4.64 -0.08 16.88 -0.08 18.64 c0 0.52 0.08 0.64 0.56 0.64 c0.28 0 0.6 0.04 0.88 0.04 c1.12 0 1.8 -0.04 2.96 -0.04 c0.88 0 0.56 -1.44 0.56 -3 z M24.622000000000003 21.4 l0.04 -4.04 c0.04 -0.6 -0.16 -1.8 0.4 -2.24 c0.76 -0.56 2.32 0 3 0.48 c2 1.36 1.84 4.72 0.76 6.6 c-0.52 0.88 -1.4 1.4 -2.4 1.68 c-0.6 0.16 -1.72 0.36 -1.76 -0.6 c0 -0.64 -0.04 -1.88 -0.04 -1.88 z"></path>
  </g>
</svg>