<svg width="358.21151254344943" height="353.75" viewBox="0 0 382.8939312522737 378.125" class="css-1j8o68f">
  <defs id="SvgjsDefs2204"></defs>
  <g id="SvgjsG2205" featurekey="rootContainer" transform="matrix(3.547139395286651,0,0,3.547139395286651,-0.19706935327516453,0)" fill="#1f2937"><g xmlns="http://www.w3.org/2000/svg">
  <g id="SvgjsG2206" featurekey="symbolFeature-0" transform="matrix(1.1677827924508075,0,0,1.1677827924508075,153.92288427881667,60.80171610827761)" fill="#ffffff"> 
    <path xmlns="http://www.w3.org/2000/svg" d="M56.25854,42.44531h-32c-0.55225,0-1-0.44727-1-1v-10c0-0.55273,0.44775-1,1-1h32c0.55225,0,1,0.44727,1,1v10  C57.25854,41.99805,56.81079,42.44531,56.25854,42.44531z M25.25854,40.44531h30v-8h-30V40.44531z"></path>
    <path xmlns="http://www.w3.org/2000/svg" d="M56.25854,32.44531h-14c-0.55225,0-1-0.44727-1-1v-6c0-0.55273,0.44775-1,1-1h14c0.55225,0,1,0.44727,1,1v6  C57.25854,31.99805,56.81079,32.44531,56.25854,32.44531z M43.25854,30.44531h12v-4h-12V30.44531z"></path>
    <path xmlns="http://www.w3.org/2000/svg" d="M53.91479,26.46582c-0.55225,0-1-0.44727-1-1v-4c0-0.55273,0.44775-1,1-1s1,0.44727,1,1v4  C54.91479,26.01855,54.46704,26.46582,53.91479,26.46582z"></path>
    <path xmlns="http://www.w3.org/2000/svg" d="M28.69604,32.32031c-0.55225,0-1-0.44727-1-1v-16c0-0.55273,0.44775-1,1-1s1,0.44727,1,1v16  C29.69604,31.87305,29.24829,32.32031,28.69604,32.32031z"></path>
    <path xmlns="http://www.w3.org/2000/svg" d="M36.82104,16.16406h-18c-0.55225,0-1-0.44727-1-1v-8c0-0.55273,0.44775-1,1-1h18c0.55225,0,1,0.44727,1,1v8  C37.82104,15.7168,37.37329,16.16406,36.82104,16.16406z M19.82104,14.16406h16v-6h-16V14.16406z"></path>
    <circle xmlns="http://www.w3.org/2000/svg" cx="23.37378" cy="11.38281" r="2"></circle>
    <circle xmlns="http://www.w3.org/2000/svg" cx="15.77319" cy="32.90625" r="2"></circle>
    <path xmlns="http://www.w3.org/2000/svg" d="M7.28784,42.3916c-0.25586,0-0.51172-0.09766-0.70703-0.29297c-0.39063-0.39063-0.39063-1.02344,0-1.41406l8.48535-8.48535  c0.39063-0.39063,1.02344-0.39063,1.41406,0s0.39063,1.02344,0,1.41406l-8.48535,8.48535  C7.79956,42.29395,7.5437,42.3916,7.28784,42.3916z"></path>
    <path xmlns="http://www.w3.org/2000/svg" d="M24.25854,42.3916c-0.25586,0-0.51172-0.09766-0.70703-0.29297l-8.48535-8.48535  c-0.39063-0.39063-0.39063-1.02344,0-1.41406s1.02344-0.39063,1.41406,0l8.48535,8.48535c0.39063,0.39063,0.39063,1.02344,0,1.41406  C24.77026,42.29395,24.5144,42.3916,24.25854,42.3916z"></path>
    <path xmlns="http://www.w3.org/2000/svg" d="M9.29175,46.04492c-0.25586,0-0.51172-0.09766-0.70703-0.29297l-5.65674-5.65723  c-0.39063-0.39063-0.39063-1.02344,0-1.41406s1.02344-0.39063,1.41406,0l5.65674,5.65723c0.39063,0.39063,0.39063,1.02344,0,1.41406  C9.80347,45.94727,9.54761,46.04492,9.29175,46.04492z"></path>
    <path xmlns="http://www.w3.org/2000/svg" d="M36.82104,12.16406h-6c-0.55225,0-1-0.44727-1-1s0.44775-1,1-1h6c0.55225,0,1,0.44727,1,1  S37.37329,12.16406,36.82104,12.16406z"></path>
    <path xmlns="http://www.w3.org/2000/svg" d="M56.18909,35.80676h-9.62512c-0.5906,0-1.06946-0.47833-1.06946-1.06946s0.47886-1.06946,1.06946-1.06946h9.62512  c0.5906,0,1.06946,0.47833,1.06946,1.06946S56.77969,35.80676,56.18909,35.80676z M42.28613,35.80676h-1.06946  c-0.5906,0-1.06946-0.47833-1.06946-1.06946s0.47886-1.06946,1.06946-1.06946h1.06946c0.5906,0,1.06946,0.47833,1.06946,1.06946  S42.87674,35.80676,42.28613,35.80676z"></path>
    <path xmlns="http://www.w3.org/2000/svg" d="M56.25854,39.15332h-6c-0.55225,0-1-0.44727-1-1s0.44775-1,1-1h6c0.55225,0,1,0.44727,1,1  S56.81079,39.15332,56.25854,39.15332z"></path>
    <path xmlns="http://www.w3.org/2000/svg" d="M25.1521,57.83594c-3.30859,0-6-2.69141-6-6s2.69141-6,6-6s6,2.69141,6,6S28.46069,57.83594,25.1521,57.83594z   M25.1521,47.83594c-2.20557,0-4,1.79395-4,4s1.79443,4,4,4s4-1.79395,4-4S27.35767,47.83594,25.1521,47.83594z"></path>
    <path xmlns="http://www.w3.org/2000/svg" d="M40.25854,57.83594c-3.30859,0-6-2.69141-6-6s2.69141-6,6-6s6,2.69141,6,6S43.56714,57.83594,40.25854,57.83594z   M40.25854,47.83594c-2.20557,0-4,1.79395-4,4s1.79443,4,4,4s4-1.79395,4-4S42.46411,47.83594,40.25854,47.83594z"></path>
    <path xmlns="http://www.w3.org/2000/svg" d="M55.36499,57.83594c-3.30859,0-6-2.69141-6-6s2.69141-6,6-6s6,2.69141,6,6S58.67358,57.83594,55.36499,57.83594z   M55.36499,47.83594c-2.20557,0-4,1.79395-4,4s1.79443,4,4,4s4-1.79395,4-4S57.57056,47.83594,55.36499,47.83594z"></path>
    <circle xmlns="http://www.w3.org/2000/svg" cx="30.69604" cy="36.44531" r="2"></circle>
    <path xmlns="http://www.w3.org/2000/svg" d="M32.86255,21.6123h-8c-0.55225,0-1-0.44727-1-1s0.44775-1,1-1h8c0.55225,0,1,0.44727,1,1S33.41479,21.6123,32.86255,21.6123  z"></path>
    <path xmlns="http://www.w3.org/2000/svg" d="M55.91479,21.84082h-4c-0.55225,0-1-0.44727-1-1v-6c0-0.55273,0.44775-1,1-1h4c0.55225,0,1,0.44727,1,1v6  C56.91479,21.39355,56.46704,21.84082,55.91479,21.84082z M52.91479,19.84082h2v-4h-2V19.84082z"></path>
    <circle xmlns="http://www.w3.org/2000/svg" cx="25.1521" cy="51.83594" r="1.5"></circle>
    <circle xmlns="http://www.w3.org/2000/svg" cx="40.25854" cy="51.83594" r="1.5"></circle>
    <circle xmlns="http://www.w3.org/2000/svg" cx="55.36499" cy="51.83594" r="1.5"></circle>
  </g>
  <g id="SvgjsG2207" featurekey="nameFeature-0" transform="matrix(4.6720279107201925,0,0,4.6720279107201925,102.73900255896714,102.4010243444007)" fill="#ffffff">
    <path d="M2.04 31.8 l-0.04 0 c0 1 -0.04 2.04 0 3.08 c0.04 1.28 0.12 2.56 0.2 3.84 c0 0.44 0.12 0.56 0.52 0.64 c0.84 0.2 1.64 0.24 2.48 0.24 c2.16 -0.08 4.32 0.08 6.48 0 c0.88 -0.04 1.28 0.04 2.16 -0.12 c0.8 -0.16 1.08 -0.6 1.08 -1.8 c-0.08 -0.76 -0.04 -1.08 -0.04 -2 c0 -1.32 -0.92 -1.76 -1.72 -1.72 c-0.56 0.04 -3.24 -0.04 -4.32 -0.04 c-1.8 0.04 -1.52 0.28 -1.52 -1.6 c0 -1.52 0.04 -3.48 0.04 -5.04 c0 -0.84 0.08 -1.12 0.88 -1.12 l5 0 c0.8 0.12 1.36 -0.44 1.36 -1.28 s0.08 -0.88 0.08 -1.72 l-0.12 -1.2 c-0.08 -0.68 -0.32 -0.92 -1 -0.92 c-0.44 0 -0.88 0.04 -1.32 0.08 c-1.72 0.12 -2.52 -0.12 -4.2 0 c-0.56 0 -0.64 -0.08 -0.68 -0.6 c-0.16 -1.56 0 -3.28 0.16 -4.84 c0.04 -0.64 0.2 -0.76 0.8 -0.8 l5.64 -0.04 c0.76 -0.08 1 -0.04 0.96 -0.8 c-0.08 -1.16 0.04 -2.36 -0.08 -3.52 c-0.08 -0.64 -0.28 -0.76 -1 -0.76 c-1.2 0.04 -1.48 0.04 -2.68 0.12 c-1.2 0.04 -6 0.04 -7.16 0.04 c-1.68 0 -1.8 -0.12 -1.84 1.92 c-0.08 1.6 -0.04 3.24 -0.04 4.88 c0 2.8 -0.16 12.84 -0.08 15.08 z M24.622000000000003 37 c0 -1.04 0 -7.6 0.04 -8.12 c0.04 -0.12 0.12 -0.36 0.28 -0.36 s0.24 0.08 0.28 0.2 c1.6 3.12 3 6.24 4.44 9.28 c0.2 0.44 0.64 1.72 0.76 1.84 c0.16 0.24 0.44 0.16 0.68 0.16 l4.4 0.04 c0.52 0 0.64 -0.32 0.52 -0.76 c-0.32 -1.2 -2.6 -5.44 -3.12 -6.48 c-0.36 -0.8 -2.76 -5.44 -2.84 -5.8 c-0.08 -0.16 0.52 -0.44 0.6 -0.56 c1.92 -1.72 3.64 -3.48 4 -6.16 c0.4 -2.64 -0.2 -5.52 -1.92 -7.64 c-1.32 -1.56 -3.04 -2.48 -5.08 -2.6 c-1.24 -0.08 -2.44 0.04 -3.68 0 c-1.08 -0.04 -1.84 -0.04 -3.2 -0.04 c-0.64 0 -1.04 0.36 -1.08 1.04 l0 0.48 c-0.08 3.08 0 6.16 0.04 9.2 c0 4.64 -0.08 16.88 -0.08 18.64 c0 0.52 0.08 0.64 0.56 0.64 c0.28 0 0.6 0.04 0.88 0.04 c1.12 0 1.8 -0.04 2.96 -0.04 c0.88 0 0.56 -1.44 0.56 -3 z M24.622000000000003 21.4 l0.04 -4.04 c0.04 -0.6 -0.16 -1.8 0.4 -2.24 c0.76 -0.56 2.32 0 3 0.48 c2 1.36 1.84 4.72 0.76 6.6 c-0.52 0.88 -1.4 1.4 -2.4 1.68 c-0.6 0.16 -1.72 0.36 -1.76 -0.6 c0 -0.64 -0.04 -1.88 -0.04 -1.88 z"></path>
  </g>
  <g id="SvgjsG2208" featurekey="sloganFeature-0" transform="matrix(0.8810267554749502,0,0,0.8810267554749502,140.11897324452505,292.7270896018439)" fill="#ffffff">
    <path d="M1 20 l0 -11.98 c0 -0.5 0.1 -0.6 0.26 -0.6 l8.76 0 c0.14 0 0.26 0.1 0.26 0.24 l0 2.26 c0 0.14 -0.12 0.26 -0.26 0.26 l-5.92 0 l0 2.08 l3.74 0 c0.14 0 0.26 0.12 0.26 0.26 l0 2.24 c0 0.14 -0.12 0.26 -0.26 0.26 l-3.74 0 l0 2.14 l5.9 0 c0.14 0 0.26 0.12 0.26 0.26 l0 2.24 c0 0.14 -0.12 0.26 -0.26 0.26 l-8.74 0 c-0.16 0 -0.26 -0.12 -0.26 0.08 z M16.54 20 c-0.1 0 -0.2 -0.06 -0.24 -0.16 l-4 -12 c-0.04 -0.08 -0.02 -0.16 0.02 -0.24 c0.06 -0.06 0.14 -0.1 0.22 -0.1 l2.8 0 c0.1 0 0.2 0.06 0.24 0.18 l2.38 7.82 l2.4 -7.82 c0.04 -0.12 0.14 -0.18 0.24 -0.18 l2.68 0 c0.08 0 0.16 0.04 0.22 0.1 c0.04 0.08 0.06 0.16 0.02 0.24 l-4.06 12 c-0.04 0.1 -0.12 0.16 -0.24 0.16 l-2.68 0 z M25.54 20 l0 -11.98 c0 -0.5 0.1 -0.6 0.26 -0.6 l8.76 0 c0.14 0 0.26 0.1 0.26 0.24 l0 2.26 c0 0.14 -0.12 0.26 -0.26 0.26 l-5.92 0 l0 2.08 l3.74 0 c0.14 0 0.26 0.12 0.26 0.26 l0 2.24 c0 0.14 -0.12 0.26 -0.26 0.26 l-3.74 0 l0 2.14 l5.9 0 c0.14 0 0.26 0.12 0.26 0.26 l0 2.24 c0 0.14 -0.12 0.26 -0.26 0.26 l-8.74 0 c-0.16 0 -0.26 -0.12 -0.26 0.08 z M37.08 20 c-0.16 0 -0.26 -0.12 -0.26 -0.26 l0 -11.98 c0 -0.14 0.1 -0.26 0.26 -0.26 l4.88 0 c1.52 0 2.72 0.38 3.56 1.16 c1.24 1.12 1.66 3.24 1.06 4.8 c-0.22 0.56 -0.6 1.08 -1.08 1.46 c-0.28 0.22 -0.58 0.38 -0.88 0.54 c0.86 1.36 2.16 4.12 2.16 4.12 c0.02 0.04 0.06 0.1 0.06 0.16 c0 0.14 -0.12 0.26 -0.26 0.26 l-2.96 0 c-0.08 0 -0.18 -0.06 -0.22 -0.14 l-1.74 -3.82 c-0.62 0.04 -1.1 0.02 -1.74 0.02 l0 3.68 c0 0.14 -0.12 0.26 -0.26 0.26 l-2.58 0 z M39.92 13.280000000000001 c0 0 2.52 0.28 3.4 -0.3 c0.34 -0.22 0.54 -0.76 0.54 -1.16 c-0.02 -0.44 -0.24 -0.9 -0.6 -1.18 c-0.38 -0.32 -1.32 -0.42 -1.8 -0.42 l-1.54 0.04 l0 3.02 z M54.519999999999996 20 c-0.16 0 -0.26 -0.12 -0.26 -0.26 l0 -11.98 c0 -0.14 0.1 -0.26 0.26 -0.26 l4.88 0 c1.52 0 2.72 0.38 3.56 1.16 c1.24 1.12 1.66 3.24 1.06 4.8 c-0.22 0.56 -0.6 1.08 -1.08 1.46 c-0.28 0.22 -0.58 0.38 -0.88 0.54 c0.86 1.36 2.16 4.12 2.16 4.12 c0.02 0.04 0.06 0.1 0.06 0.16 c0 0.14 -0.12 0.26 -0.26 0.26 l-2.96 0 c-0.08 0 -0.18 -0.06 -0.22 -0.14 l-1.74 -3.82 c-0.62 0.04 -1.1 0.02 -1.74 0.02 l0 3.68 c0 0.14 -0.12 0.26 -0.26 0.26 l-2.58 0 z M57.36 13.280000000000001 c0 0 2.52 0.28 3.4 -0.3 c0.34 -0.22 0.54 -0.76 0.54 -1.16 c-0.02 -0.44 -0.24 -0.9 -0.6 -1.18 c-0.38 -0.32 -1.32 -0.42 -1.8 -0.42 l-1.54 0.04 l0 3.02 z M72.74 20 c-1.2 0 -2.3 -0.28 -3.26 -0.84 c-0.98 -0.56 -1.76 -1.36 -2.34 -2.32 c-0.56 -0.98 -0.84 -2.1 -0.84 -3.3 c0 -1.18 0.28 -2.28 0.84 -3.26 c0.58 -0.98 1.34 -1.76 2.32 -2.32 s2.08 -0.84 3.28 -0.84 c1.18 0 2.28 0.28 3.26 0.84 s1.76 1.34 2.32 2.32 c0.58 0.98 0.86 2.08 0.86 3.26 c0 1.2 -0.28 2.3 -0.86 3.28 c-0.56 0.98 -1.34 1.76 -2.32 2.34 c-0.98 0.56 -2.08 0.84 -3.26 0.84 z M72.78 17.12 c0.58 0 1.12 -0.16 1.6 -0.46 c0.5 -0.32 0.9 -0.74 1.18 -1.3 c0.3 -0.54 0.44 -1.16 0.44 -1.82 c0 -0.64 -0.14 -1.26 -0.44 -1.8 c-0.28 -0.54 -0.68 -0.96 -1.18 -1.28 c-0.48 -0.3 -1.02 -0.46 -1.6 -0.46 c-0.6 0 -1.14 0.16 -1.64 0.46 c-0.52 0.32 -0.92 0.74 -1.22 1.28 c-0.3 0.56 -0.44 1.16 -0.44 1.8 c0 0.66 0.14 1.28 0.44 1.82 c0.32 0.54 0.72 0.98 1.22 1.28 c0.5 0.32 1.04 0.48 1.64 0.48 z M84.84 20 c-0.1 0 -0.2 -0.06 -0.24 -0.16 l-4 -12 c-0.04 -0.08 -0.02 -0.16 0.02 -0.24 c0.06 -0.06 0.14 -0.1 0.22 -0.1 l2.8 0 c0.1 0 0.2 0.06 0.24 0.18 l2.38 7.82 l2.4 -7.82 c0.04 -0.12 0.14 -0.18 0.24 -0.18 l2.68 0 c0.08 0 0.16 0.04 0.22 0.1 c0.04 0.08 0.06 0.16 0.02 0.24 l-4.06 12 c-0.04 0.1 -0.12 0.16 -0.24 0.16 l-2.68 0 z M93.84 20 l0 -11.98 c0 -0.5 0.1 -0.6 0.26 -0.6 l8.76 0 c0.14 0 0.26 0.1 0.26 0.24 l0 2.26 c0 0.14 -0.12 0.26 -0.26 0.26 l-5.92 0 l0 2.08 l3.74 0 c0.14 0 0.26 0.12 0.26 0.26 l0 2.24 c0 0.14 -0.12 0.26 -0.26 0.26 l-3.74 0 l0 2.14 l5.9 0 c0.14 0 0.26 0.12 0.26 0.26 l0 2.24 c0 0.14 -0.12 0.26 -0.26 0.26 l-8.74 0 c-0.16 0 -0.26 -0.12 -0.26 0.08 z M105.38000000000001 20 c-0.16 0 -0.26 -0.12 -0.26 -0.26 l0 -11.98 c0 -0.14 0.1 -0.26 0.26 -0.26 l4.88 0 c1.52 0 2.72 0.38 3.56 1.16 c1.24 1.12 1.66 3.24 1.06 4.8 c-0.22 0.56 -0.6 1.08 -1.08 1.46 c-0.28 0.22 -0.58 0.38 -0.88 0.54 c0.86 1.36 2.16 4.12 2.16 4.12 c0.02 0.04 0.06 0.1 0.06 0.16 c0 0.14 -0.12 0.26 -0.26 0.26 l-2.96 0 c-0.08 0 -0.18 -0.06 -0.22 -0.14 l-1.74 -3.82 c-0.62 0.04 -1.1 0.02 -1.74 0.02 l0 3.68 c0 0.14 -0.12 0.26 -0.26 0.26 l-2.58 0 z M108.22 13.280000000000001 c0 0 2.52 0.28 3.4 -0.3 c0.34 -0.22 0.54 -0.76 0.54 -1.16 c-0.02 -0.44 -0.24 -0.9 -0.6 -1.18 c-0.38 -0.32 -1.32 -0.42 -1.8 -0.42 l-1.54 0.04 l0 3.02 z"></path>
  </g>
</svg>